<?xml version="1.0" standalone="no"?>
<!DOCTYPE svg PUBLIC "-//W3C//DTD SVG 20010904//EN"
 "http://www.w3.org/TR/2001/REC-SVG-20010904/DTD/svg10.dtd">
<svg version="1.0" xmlns="http://www.w3.org/2000/svg"
 width="512.000000pt" height="512.000000pt" viewBox="0 0 512.000000 512.000000"
 preserveAspectRatio="xMidYMid meet">

<g transform="translate(0.000000,512.000000) scale(0.100000,-0.100000)"
fill="#000000" stroke="none">
<path d="M2450 5102 c-30 -10 -75 -31 -100 -46 -25 -16 -355 -337 -733 -715
-772 -770 -751 -745 -751 -881 0 -117 64 -219 174 -275 52 -27 165 -32 231
-10 51 16 88 51 672 633 l617 617 618 -617 c583 -582 620 -617 671 -633 113
-37 260 -1 328 80 48 56 77 134 77 206 0 54 -6 78 -31 130 -29 57 -105 137
-725 755 -670 669 -696 693 -770 729 -97 47 -190 56 -278 27z"/>
<path d="M1074 1949 c-58 -17 -128 -72 -161 -128 -62 -104 -64 -206 -7 -311
18 -32 246 -267 717 -737 663 -661 695 -692 767 -727 128 -62 247 -58 370 12
27 15 316 295 738 716 619 618 696 698 725 755 41 84 43 169 6 251 -36 78 -71
114 -141 149 -50 25 -74 31 -128 31 -140 0 -97 36 -782 -649 l-618 -616 -617
616 c-561 559 -623 618 -667 633 -53 17 -152 20 -202 5z"/>
</g>
</svg>
